# Blender v2.93.0 OBJ File: 'steve.blend'
# www.blender.org
mtllib steve.mtl
o body
v 0.800000 -1.200000 0.400000
v 0.800000 1.200000 0.400000
v -0.800000 -1.200000 0.400000
v -0.800000 1.200000 0.400000
v 0.800000 -1.200000 -0.400000
v 0.800000 1.200000 -0.400000
v -0.800000 -1.200000 -0.400000
v -0.800000 1.200000 -0.400000
vt 0.375000 0.000000
vt 0.625000 0.000000
vt 0.625000 0.250000
vt 0.375000 0.250000
vt 0.625000 0.500000
vt 0.375000 0.500000
vt 0.625000 0.750000
vt 0.375000 0.750000
vt 0.625000 1.000000
vt 0.375000 1.000000
vt 0.125000 0.500000
vt 0.125000 0.750000
vt 0.875000 0.500000
vt 0.875000 0.750000
vn 0.0000 0.0000 1.0000
vn -1.0000 0.0000 0.0000
vn -0.0000 0.0000 -1.0000
vn 1.0000 0.0000 0.0000
vn 0.0000 -1.0000 0.0000
vn 0.0000 1.0000 0.0000
usemtl マテリアル.001
s off
f 1/1/1 2/2/1 4/3/1 3/4/1
f 3/4/2 4/3/2 8/5/2 7/6/2
f 7/6/3 8/5/3 6/7/3 5/8/3
f 5/8/4 6/7/4 2/9/4 1/10/4
f 3/11/5 7/6/5 5/8/5 1/12/5
f 8/5/6 4/13/6 2/14/6 6/7/6
o body.001
v 0.000000 -3.310641 1.164115
v -0.800000 -3.310641 1.164115
v 0.000000 -1.037336 0.394643
v 0.000000 -3.567131 0.406346
v -0.800000 -3.567131 0.406346
v 0.000000 -1.293827 -0.363125
v -0.800000 -1.293827 -0.363125
v -0.800000 -1.037336 0.394643
vt 0.125000 0.500000
vt 0.375000 0.500000
vt 0.375000 0.750000
vt 0.125000 0.750000
vt 0.375000 0.000000
vt 0.625000 0.000000
vt 0.625000 0.250000
vt 0.375000 0.250000
vt 0.625000 0.750000
vt 0.625000 1.000000
vt 0.375000 1.000000
vt 0.625000 0.500000
vt 0.875000 0.500000
vt 0.875000 0.750000
vn 0.0000 -0.9472 0.3206
vn 0.0000 0.3206 0.9472
vn 1.0000 -0.0000 -0.0000
vn -0.0000 -0.3206 -0.9472
vn -0.0000 0.9472 -0.3206
vn -1.0000 -0.0000 0.0000
usemtl マテリアル.005
s off
f 10/15/7 13/16/7 12/17/7 9/18/7
f 9/19/8 11/20/8 16/21/8 10/22/8
f 12/17/9 14/23/9 11/24/9 9/25/9
f 13/16/10 15/26/10 14/23/10 12/17/10
f 15/26/11 16/27/11 11/28/11 14/23/11
f 10/22/12 16/21/12 15/26/12 13/16/12
o body.002
v 0.800000 -3.565416 -0.464293
v -0.000000 -3.565416 -0.464293
v 0.800000 -1.311590 0.360490
v 0.800000 -3.290489 -1.215568
v -0.000000 -3.290489 -1.215568
v 0.800000 -1.036662 -0.390785
v -0.000000 -1.036662 -0.390785
v -0.000000 -1.311590 0.360490
vt 0.125000 0.500000
vt 0.375000 0.500000
vt 0.375000 0.750000
vt 0.125000 0.750000
vt 0.375000 0.000000
vt 0.625000 0.000000
vt 0.625000 0.250000
vt 0.375000 0.250000
vt 0.625000 0.750000
vt 0.625000 1.000000
vt 0.375000 1.000000
vt 0.625000 0.500000
vt 0.875000 0.500000
vt 0.875000 0.750000
vn -0.0000 -0.9391 -0.3437
vn 0.0000 -0.3437 0.9391
vn 1.0000 -0.0000 -0.0000
vn -0.0000 0.3437 -0.9391
vn 0.0000 0.9391 0.3437
vn -1.0000 0.0000 0.0000
usemtl マテリアル.004
s off
f 18/29/13 21/30/13 20/31/13 17/32/13
f 17/33/14 19/34/14 24/35/14 18/36/14
f 20/31/15 22/37/15 19/38/15 17/39/15
f 21/30/16 23/40/16 22/37/16 20/31/16
f 23/40/17 24/41/17 19/42/17 22/37/17
f 18/36/18 24/35/18 23/40/18 21/30/18
o body.003
v 0.800000 1.068094 0.744253
v -0.800000 1.068094 0.744253
v 0.800000 2.626456 1.106895
v 0.800000 1.430737 -0.814109
v -0.800000 1.430737 -0.814109
v 0.800000 2.989098 -0.451467
v -0.800000 2.989098 -0.451467
v -0.800000 2.626456 1.106895
vt 0.125000 0.500000
vt 0.375000 0.500000
vt 0.375000 0.750000
vt 0.125000 0.750000
vt 0.375000 0.000000
vt 0.625000 0.000000
vt 0.625000 0.250000
vt 0.375000 0.250000
vt 0.625000 0.750000
vt 0.625000 1.000000
vt 0.375000 1.000000
vt 0.625000 0.500000
vt 0.875000 0.500000
vt 0.875000 0.750000
vn -0.0000 -0.9740 -0.2267
vn 0.0000 -0.2267 0.9740
vn 1.0000 -0.0000 -0.0000
vn -0.0000 0.2267 -0.9740
vn 0.0000 0.9740 0.2267
vn -1.0000 -0.0000 0.0000
usemtl マテリアル
s off
f 26/43/19 29/44/19 28/45/19 25/46/19
f 25/47/20 27/48/20 32/49/20 26/50/20
f 28/45/21 30/51/21 27/52/21 25/53/21
f 29/44/22 31/54/22 30/51/22 28/45/22
f 31/54/23 32/55/23 27/56/23 30/51/23
f 26/50/24 32/49/24 31/54/24 29/44/24
o body.004
v -0.800000 -1.168406 -0.550256
v -1.400000 -1.168406 -0.550256
v -0.800000 1.058401 0.344915
v -0.800000 -0.944614 -1.106958
v -1.400000 -0.944614 -1.106958
v -0.800000 1.282194 -0.211787
v -1.400000 1.282194 -0.211787
v -1.400000 1.058401 0.344915
vt 0.125000 0.500000
vt 0.375000 0.500000
vt 0.375000 0.750000
vt 0.125000 0.750000
vt 0.375000 0.000000
vt 0.625000 0.000000
vt 0.625000 0.250000
vt 0.375000 0.250000
vt 0.625000 0.750000
vt 0.625000 1.000000
vt 0.375000 1.000000
vt 0.625000 0.500000
vt 0.875000 0.500000
vt 0.875000 0.750000
vn -0.0000 -0.9278 -0.3730
vn 0.0000 -0.3730 0.9278
vn 1.0000 -0.0000 -0.0000
vn -0.0000 0.3730 -0.9278
vn 0.0000 0.9278 0.3730
vn -1.0000 -0.0000 -0.0000
usemtl マテリアル.003
s off
f 34/57/25 37/58/25 36/59/25 33/60/25
f 33/61/26 35/62/26 40/63/26 34/64/26
f 36/59/27 38/65/27 35/66/27 33/67/27
f 37/58/28 39/68/28 38/65/28 36/59/28
f 39/68/29 40/69/29 35/70/29 38/65/29
f 34/64/30 40/63/30 39/68/30 37/58/30
o body.005
v 1.400000 -0.927819 1.307253
v 0.800000 -0.927819 1.307253
v 1.400000 1.315763 0.454996
v 1.400000 -1.211904 0.559392
v 0.800000 -1.211904 0.559392
v 1.400000 1.031677 -0.292864
v 0.800000 1.031677 -0.292864
v 0.800000 1.315763 0.454996
vt 0.125000 0.500000
vt 0.375000 0.500000
vt 0.375000 0.750000
vt 0.125000 0.750000
vt 0.375000 0.000000
vt 0.625000 0.000000
vt 0.625000 0.250000
vt 0.375000 0.250000
vt 0.625000 0.750000
vt 0.625000 1.000000
vt 0.375000 1.000000
vt 0.625000 0.500000
vt 0.875000 0.500000
vt 0.875000 0.750000
vn 0.0000 -0.9348 0.3551
vn 0.0000 0.3551 0.9348
vn 1.0000 -0.0000 0.0000
vn 0.0000 -0.3551 -0.9348
vn -0.0000 0.9348 -0.3551
vn -1.0000 -0.0000 0.0000
usemtl マテリアル.002
s off
f 42/71/31 45/72/31 44/73/31 41/74/31
f 41/75/32 43/76/32 48/77/32 42/78/32
f 44/73/33 46/79/33 43/80/33 41/81/33
f 45/72/34 47/82/34 46/79/34 44/73/34
f 47/82/35 48/83/35 43/84/35 46/79/35
f 42/78/36 48/77/36 47/82/36 45/72/36
